<?xml version="1.0" encoding="UTF-8" standalone="no"?>
<!DOCTYPE svg PUBLIC "-//W3C//DTD SVG 1.1//EN" "http://www.w3.org/Graphics/SVG/1.1/DTD/svg11.dtd">
<svg width="100%" height="100%" viewBox="0 0 512 512" version="1.1" xmlns="http://www.w3.org/2000/svg" xmlns:xlink="http://www.w3.org/1999/xlink" xml:space="preserve" style="fill-rule:evenodd;clip-rule:evenodd;stroke-linecap:round;stroke-linejoin:round;stroke-miterlimit:1.5;">
    <path d="M436.88,134.455l-0,305.119c-0,29.949 -24.315,54.264 -54.264,54.264l-253.232,-0c-29.949,-0 -54.264,-24.315 -54.264,-54.264l0,-305.119c0,-29.949 24.315,-54.264 54.264,-54.264l253.232,-0c29.949,-0 54.264,24.315 54.264,54.264Z" style="fill:#2a76b7;stroke:#000;stroke-width:12px;"/>
    <g>
        <path d="M394.697,182.696l0,13.635c0,3.763 -3.054,6.817 -6.817,6.817l-263.76,0c-3.763,0 -6.817,-3.054 -6.817,-6.817l-0,-13.635c-0,-3.762 3.054,-6.817 6.817,-6.817l263.76,-0c3.763,-0 6.817,3.055 6.817,6.817Z" style="fill:#18242d;"/>
        <path d="M249.12,226.556l0,13.635c0,3.763 -3.054,6.818 -6.817,6.818l-118.183,-0c-3.763,-0 -6.817,-3.055 -6.817,-6.818l-0,-13.635c-0,-3.762 3.054,-6.817 6.817,-6.817l118.183,0c3.763,0 6.817,3.055 6.817,6.817Z" style="fill:#18242d;"/>
        <path d="M330.226,270.467l0,13.634c0,3.763 -3.055,6.818 -6.817,6.818l-199.289,-0c-3.763,-0 -6.817,-3.055 -6.817,-6.818l-0,-13.634c-0,-3.763 3.054,-6.818 6.817,-6.818l199.289,0c3.762,0 6.817,3.055 6.817,6.818Z" style="fill:#18242d;"/>
        <path d="M394.697,314.327l0,13.634c0,3.763 -3.054,6.818 -6.817,6.818l-263.76,-0c-3.763,-0 -6.817,-3.055 -6.817,-6.818l-0,-13.634c-0,-3.763 3.054,-6.818 6.817,-6.818l263.76,0c3.763,0 6.817,3.055 6.817,6.818Z" style="fill:#18242d;"/>
        <path d="M307.457,358.237l-0,13.634c-0,3.763 -3.055,6.818 -6.818,6.818l-176.519,-0c-3.763,-0 -6.817,-3.055 -6.817,-6.818l-0,-13.634c-0,-3.763 3.054,-6.818 6.817,-6.818l176.519,0c3.763,0 6.818,3.055 6.818,6.818Z" style="fill:#18242d;"/>
        <path d="M223.764,402.147l0,13.634c0,3.763 -3.054,6.818 -6.817,6.818l-92.827,-0c-3.763,-0 -6.817,-3.055 -6.817,-6.818l-0,-13.634c-0,-3.763 3.054,-6.818 6.817,-6.818l92.827,0c3.763,0 6.817,3.055 6.817,6.818Z" style="fill:#18242d;"/>
        <path d="M355.547,446.007l0,13.635c0,3.762 -3.054,6.817 -6.817,6.817l-224.61,-0c-3.763,-0 -6.817,-3.055 -6.817,-6.817l-0,-13.635c-0,-3.763 3.054,-6.817 6.817,-6.817l224.61,-0c3.763,-0 6.817,3.054 6.817,6.817Z" style="fill:#18242d;"/>
    </g>
    <path d="M296,59.865l0,5.688c0,4.765 1.579,17.063 28.619,17.673c10.866,0.245 15.488,9.951 15.488,13.733l-0,37.698c-0,8.548 -6.94,15.488 -15.488,15.488l-137.238,0c-8.548,0 -15.488,-6.94 -15.488,-15.488l0,-37.698c0,-3.124 4.884,-13.567 15.488,-13.733c29.203,-0.459 28.619,-17.07 28.619,-17.673l-0,-5.688c-0,-22.076 17.923,-40 40,-40c22.077,0 40,17.924 40,40Zm-22.146,9.017c1.372,-2.71 2.146,-5.773 2.146,-9.017c0,-11.038 -8.962,-20 -20,-20c-11.038,0 -20,8.962 -20,20c-0,3.244 0.774,6.307 2.146,9.017c3.299,6.514 10.059,10.983 17.854,10.983c7.795,0 14.555,-4.469 17.854,-10.983Z" style="fill:#215f91;stroke:#000;stroke-width:12px;"/>
</svg>
